<svg version="1.1" id="Layer_1" xmlns="http://www.w3.org/2000/svg" x="0" y="0" viewBox="0 0 222.9 222.9" xml:space="preserve"><style>.st0{fill:none;stroke:#333;stroke-width:6.3692;stroke-miterlimit:10}.st1{fill:#333}.st2{fill:#fff}</style><ellipse class="st0" cx="156" cy="25.5" rx="63.7" ry="22.3"/><path class="st0" d="M219.7 57.3c0 12.3-28.5 22.3-63.7 22.3s-63.7-10-63.7-22.3m127.4 31.9c0 12.3-28.5 22.3-63.7 22.3s-63.7-10-63.7-22.3M219.7 121c0 12.3-28.5 22.3-63.7 22.3s-63.7-10-63.7-22.3"/><path class="st0" d="M219.7 25.5v127.4c0 12.3-28.5 22.3-63.7 22.3s-63.7-10-63.7-22.3V25.5"/><g id="XMLID_3_"><path class="st1" d="M133.8 133.7v31.9h-6.4v-20.5c4-3.3 6.4-7 6.4-11.4zm0-31.8v31.8h-6.4v-20.5c4-3.2 6.4-7 6.4-11.3z"/><path class="st1" d="M133.8 101.9c0 4.3-2.4 8.1-6.4 11.3v-11.3h6.4zm-6.4 31.8h6.4c0 4.3-2.4 8.1-6.4 11.3v-11.3zm0 31.9h6.4c0 4.3-2.4 8.1-6.4 11.3v-11.3z"/><path class="st2" d="M127.4 176.9v20.5c0 9-24.8 19.1-60.5 19.1s-60.5-10-60.5-19.1v-20.5C17.9 186.1 43 191 66.9 191s49-4.9 60.5-14.1z"/><path class="st2" d="M127.4 145.1v20.5c0 9-24.8 19.1-60.5 19.1S6.4 174.6 6.4 165.6v-20.5c11.5 9.2 36.6 14.1 60.5 14.1s49-4.9 60.5-14.1z"/><path class="st2" d="M127.4 113.2v20.5c0 9-24.8 19.1-60.5 19.1s-60.5-10-60.5-19.1v-20.5c11.5 9.2 36.6 14.1 60.5 14.1s49-4.9 60.5-14.1z"/><ellipse class="st2" cx="66.9" cy="101.9" rx="60.5" ry="19.1"/><path class="st1" d="M66.9 152.8c35.7 0 60.5-10.1 60.5-19.1V145c-11.5 9.2-36.6 14.1-60.5 14.1s-49-4.9-60.5-14.1v-11.3c0 9.1 24.8 19.1 60.5 19.1zm0 31.9c35.7 0 60.5-10.1 60.5-19.1v11.3c-11.5 9.2-36.6 14.1-60.5 14.1s-49-4.9-60.5-14.1v-11.3c0 9 24.8 19.1 60.5 19.1z"/><path class="st1" d="M133.8 197.4c0 16.6-34.5 25.5-66.9 25.5S0 214 0 197.4v-31.9c0 4.3 2.4 8.1 6.4 11.3v20.5c0 9 24.8 19.1 60.5 19.1s60.5-10.1 60.5-19.1v-20.5c4-3.3 6.4-7 6.4-11.3v31.9zm-6.4-95.5v11.3c-11.5 9.2-36.6 14.1-60.5 14.1s-49-4.9-60.5-14.1v-11.3c0 9 24.8 19.1 60.5 19.1s60.5-10.1 60.5-19.1z"/><path class="st1" d="M66.9 76.4c32.4 0 66.9 9 66.9 25.5h-6.4c0-9-24.8-19.1-60.5-19.1S6.4 92.9 6.4 101.9H0c0-16.5 34.5-25.5 66.9-25.5zM6.4 165.6v11.3c-4-3.3-6.4-7-6.4-11.3h6.4zM6.4 145.1v20.5H0v-31.9c0 4.4 2.4 8.1 6.4 11.4z"/><path class="st1" d="M6.4 133.7V145c-4-3.3-6.4-7-6.4-11.3h6.4zm0-20.5v20.5H0v-31.8c0 4.3 2.4 8.1 6.4 11.3z"/><path class="st1" d="M6.4 101.9v11.3c-4-3.3-6.4-7-6.4-11.3h6.4z"/></g></svg>