<?xml version="1.0" encoding="utf-8"?>
<!-- Generator: Adobe Illustrator 23.0.5, SVG Export Plug-In . SVG Version: 6.00 Build 0)  -->
<svg version="1.1" id="Layer_1" xmlns="http://www.w3.org/2000/svg" xmlns:xlink="http://www.w3.org/1999/xlink" x="0px" y="0px"
	 viewBox="0 0 400 400" style="enable-background:new 0 0 400 400;" xml:space="preserve">
<style type="text/css">
	.st0{fill:none;stroke:#333333;stroke-width:6.3692;stroke-miterlimit:10;}
	.st1{fill:#333333;}
	.st2{fill:#FFFFFF;}
</style>
<g>
	<ellipse class="st0" cx="246.04" cy="113.5" rx="63.69" ry="22.29"/>
	<path class="st0" d="M309.74,145.35c0,12.31-28.52,22.29-63.69,22.29s-63.69-9.98-63.69-22.29"/>
	<path class="st0" d="M309.74,177.19c0,12.31-28.52,22.29-63.69,22.29s-63.69-9.98-63.69-22.29"/>
	<path class="st0" d="M309.74,209.04c0,12.31-28.52,22.29-63.69,22.29s-63.69-9.98-63.69-22.29"/>
	<path class="st0" d="M309.74,113.5v127.38c0,12.31-28.52,22.29-63.69,22.29s-63.69-9.98-63.69-22.29V113.5"/>
	<g>
		<g id="XMLID_3_">
			<g>
				<path class="st1" d="M223.76,221.75v31.85h-6.37v-20.51C221.4,229.84,223.76,226.08,223.76,221.75z"/>
				<path class="st1" d="M223.76,189.9v31.85h-6.37v-20.51C221.4,197.99,223.76,194.23,223.76,189.9z"/>
				<path class="st1" d="M223.76,189.9c0,4.33-2.36,8.09-6.37,11.34V189.9H223.76z"/>
				<path class="st1" d="M217.39,221.75h6.37c0,4.33-2.36,8.09-6.37,11.34V221.75z"/>
				<path class="st1" d="M217.39,253.59h6.37c0,4.33-2.36,8.09-6.37,11.34V253.59z"/>
				<path class="st2" d="M217.39,264.93v20.51c0,9.04-24.84,19.11-60.51,19.11s-60.51-10.06-60.51-19.11v-20.51
					c11.46,9.24,36.56,14.14,60.51,14.14S205.93,274.17,217.39,264.93z"/>
				<path class="st2" d="M217.39,233.09v20.51c0,9.04-24.84,19.11-60.51,19.11s-60.51-10.06-60.51-19.11v-20.51
					c11.46,9.24,36.56,14.14,60.51,14.14S205.93,242.32,217.39,233.09z"/>
				<path class="st2" d="M217.39,201.24v20.51c0,9.04-24.84,19.11-60.51,19.11s-60.51-10.06-60.51-19.11v-20.51
					c11.46,9.24,36.56,14.14,60.51,14.14S205.93,210.47,217.39,201.24z"/>
				<ellipse class="st2" cx="156.88" cy="189.9" rx="60.51" ry="19.11"/>
				<path class="st1" d="M156.88,240.86c35.67,0,60.51-10.06,60.51-19.11v11.34c-11.46,9.24-36.56,14.14-60.51,14.14
					s-49.04-4.9-60.51-14.14v-11.34C96.38,230.79,121.22,240.86,156.88,240.86z"/>
				<path class="st1" d="M156.88,272.7c35.67,0,60.51-10.06,60.51-19.11v11.34c-11.46,9.24-36.56,14.14-60.51,14.14
					s-49.04-4.9-60.51-14.14v-11.34C96.38,262.64,121.22,272.7,156.88,272.7z"/>
				<path class="st1" d="M223.76,285.44c0,16.56-34.46,25.48-66.88,25.48S90.01,302,90.01,285.44v-31.85
					c0,4.33,2.36,8.09,6.37,11.34v20.51c0,9.04,24.84,19.11,60.51,19.11s60.51-10.06,60.51-19.11v-20.51
					c4.01-3.25,6.37-7.01,6.37-11.34V285.44z"/>
				<path class="st1" d="M217.39,189.9v11.34c-11.46,9.24-36.56,14.14-60.51,14.14s-49.04-4.9-60.51-14.14V189.9
					c0,9.04,24.84,19.11,60.51,19.11S217.39,198.95,217.39,189.9z"/>
				<path class="st1" d="M156.88,164.43c32.42,0,66.88,8.98,66.88,25.48h-6.37c0-8.98-24.84-19.11-60.51-19.11
					s-60.51,10.13-60.51,19.11h-6.37C90.01,173.41,124.46,164.43,156.88,164.43z"/>
				<path class="st1" d="M96.38,253.59v11.34c-4.01-3.25-6.37-7.01-6.37-11.34H96.38z"/>
				<path class="st1" d="M96.38,233.09v20.51h-6.37v-31.85C90.01,226.08,92.36,229.84,96.38,233.09z"/>
				<path class="st1" d="M96.38,221.75v11.34c-4.01-3.25-6.37-7.01-6.37-11.34H96.38z"/>
				<path class="st1" d="M96.38,201.24v20.51h-6.37V189.9C90.01,194.23,92.36,197.99,96.38,201.24z"/>
				<path class="st1" d="M96.38,189.9v11.34c-4.01-3.25-6.37-7.01-6.37-11.34H96.38z"/>
			</g>
			<g>
			</g>
		</g>
	</g>
</g>
</svg>
