<svg version="1.1" id="Layer_1" xmlns="http://www.w3.org/2000/svg" x="0" y="0" viewBox="0 0 400 400" xml:space="preserve"><style>.st0{fill:none;stroke:#333;stroke-width:6.3692;stroke-miterlimit:10}.st1{fill:#333}.st2{fill:#fff}</style><ellipse class="st0" cx="246.04" cy="113.5" rx="63.69" ry="22.29"/><path class="st0" d="M309.74 145.35c0 12.31-28.52 22.29-63.69 22.29s-63.69-9.98-63.69-22.29M309.74 177.19c0 12.31-28.52 22.29-63.69 22.29s-63.69-9.98-63.69-22.29M309.74 209.04c0 12.31-28.52 22.29-63.69 22.29s-63.69-9.98-63.69-22.29"/><path class="st0" d="M309.74 113.5v127.38c0 12.31-28.52 22.29-63.69 22.29s-63.69-9.98-63.69-22.29V113.5"/><g id="XMLID_3_"><path class="st1" d="M223.76 221.75v31.85h-6.37v-20.51c4.01-3.25 6.37-7.01 6.37-11.34zM223.76 189.9v31.85h-6.37v-20.51c4.01-3.25 6.37-7.01 6.37-11.34z"/><path class="st1" d="M223.76 189.9c0 4.33-2.36 8.09-6.37 11.34V189.9h6.37zM217.39 221.75h6.37c0 4.33-2.36 8.09-6.37 11.34v-11.34zM217.39 253.59h6.37c0 4.33-2.36 8.09-6.37 11.34v-11.34z"/><path class="st2" d="M217.39 264.93v20.51c0 9.04-24.84 19.11-60.51 19.11s-60.51-10.06-60.51-19.11v-20.51c11.46 9.24 36.56 14.14 60.51 14.14s49.05-4.9 60.51-14.14z"/><path class="st2" d="M217.39 233.09v20.51c0 9.04-24.84 19.11-60.51 19.11s-60.51-10.06-60.51-19.11v-20.51c11.46 9.24 36.56 14.14 60.51 14.14s49.05-4.91 60.51-14.14z"/><path class="st2" d="M217.39 201.24v20.51c0 9.04-24.84 19.11-60.51 19.11s-60.51-10.06-60.51-19.11v-20.51c11.46 9.24 36.56 14.14 60.51 14.14s49.05-4.91 60.51-14.14z"/><ellipse class="st2" cx="156.88" cy="189.9" rx="60.51" ry="19.11"/><path class="st1" d="M156.88 240.86c35.67 0 60.51-10.06 60.51-19.11v11.34c-11.46 9.24-36.56 14.14-60.51 14.14s-49.04-4.9-60.51-14.14v-11.34c.01 9.04 24.85 19.11 60.51 19.11zM156.88 272.7c35.67 0 60.51-10.06 60.51-19.11v11.34c-11.46 9.24-36.56 14.14-60.51 14.14s-49.04-4.9-60.51-14.14v-11.34c.01 9.05 24.85 19.11 60.51 19.11z"/><path class="st1" d="M223.76 285.44c0 16.56-34.46 25.48-66.88 25.48S90.01 302 90.01 285.44v-31.85c0 4.33 2.36 8.09 6.37 11.34v20.51c0 9.04 24.84 19.11 60.51 19.11s60.51-10.06 60.51-19.11v-20.51c4.01-3.25 6.37-7.01 6.37-11.34v31.85zM217.39 189.9v11.34c-11.46 9.24-36.56 14.14-60.51 14.14s-49.04-4.9-60.51-14.14V189.9c0 9.04 24.84 19.11 60.51 19.11s60.51-10.06 60.51-19.11z"/><path class="st1" d="M156.88 164.43c32.42 0 66.88 8.98 66.88 25.48h-6.37c0-8.98-24.84-19.11-60.51-19.11s-60.51 10.13-60.51 19.11H90c.01-16.5 34.46-25.48 66.88-25.48zM96.38 253.59v11.34c-4.01-3.25-6.37-7.01-6.37-11.34h6.37z"/><path class="st1" d="M96.38 233.09v20.51h-6.37v-31.85c0 4.33 2.35 8.09 6.37 11.34z"/><path class="st1" d="M96.38 221.75v11.34c-4.01-3.25-6.37-7.01-6.37-11.34h6.37zM96.38 201.24v20.51h-6.37V189.9c0 4.33 2.35 8.09 6.37 11.34z"/><path class="st1" d="M96.38 189.9v11.34c-4.01-3.25-6.37-7.01-6.37-11.34h6.37z"/></g></svg>