<svg version="1.1" id="Layer_1" xmlns="http://www.w3.org/2000/svg" x="0" y="0" viewBox="0 0 222.7 234.5" xml:space="preserve"><style>.st0{fill:#333}</style><path class="st0" d="M222.7 234.5H50.8V81.6h6.3v146.5h159.3V73.4l-65-61.9h-49.7V5.2h52.2l68.8 65.5z"/><path class="st0" d="M85.8 116.6h101.9v12.7H85.8zM85.8 146.9h101.9v12.7H85.8zM85.8 180.3h101.9V193H85.8zM219.5 81.6h-73.2V8.3h6.4v66.9h66.8zM62 65.3c-8.4 0-16.7-3.2-23.1-9.6-12.7-12.7-12.7-33.4 0-46.1C45.1 3.4 53.3 0 62 0c8.8 0 17 3.4 23.1 9.6s9.6 14.4 9.6 23.1-3.4 16.9-9.6 23.1c-6.3 6.3-14.7 9.5-23.1 9.5zm0-58.9c-7 0-13.6 2.7-18.6 7.7-10.3 10.3-10.3 26.9 0 37.2 10.3 10.3 26.9 10.2 37.2 0 5-5 7.7-11.6 7.7-18.6 0-7-2.7-13.6-7.7-18.6-4.9-5-11.5-7.7-18.6-7.7z"/><path class="st0" d="M10.9 94.3L.4 83.8c-.5-.5-.5-1.3 0-1.8l35-35c.5-.5 1.3-.5 1.8 0l10.5 10.5c.5.5.5 1.3 0 1.8l-35 35c-.6.5-1.3.5-1.8 0z"/></svg>