<svg version="1.1" id="Layer_1" xmlns="http://www.w3.org/2000/svg" x="0" y="0" viewBox="0 0 400 400" xml:space="preserve"><style>.st0{fill:#333}</style><path class="st0" d="M312.21 317.5H140.24V164.64h6.37v146.49h159.23V156.45l-64.97-61.87h-49.68v-6.37h52.23l68.79 65.51z"/><path class="st0" d="M175.27 199.67h101.91v12.74H175.27zM175.27 229.92h101.91v12.74H175.27zM175.27 263.36h101.91v12.74H175.27zM309.02 164.64h-73.24V91.39h6.37v66.88h66.87zM151.52 148.36c-8.37 0-16.73-3.18-23.1-9.55-12.74-12.74-12.74-33.47 0-46.2 6.17-6.17 14.38-9.57 23.1-9.57 8.73 0 16.93 3.4 23.1 9.57s9.57 14.37 9.57 23.1-3.4 16.93-9.57 23.1c-6.37 6.37-14.74 9.55-23.1 9.55zm0-58.95c-7.02 0-13.63 2.74-18.6 7.7-10.25 10.25-10.25 26.94 0 37.19 10.26 10.25 26.94 10.24 37.19 0 4.97-4.97 7.71-11.58 7.71-18.6 0-7.03-2.74-13.63-7.71-18.6-4.97-4.95-11.57-7.69-18.59-7.69z"/><path class="st0" d="M100.35 177.37l-10.5-10.5a1.25 1.25 0 010-1.77l35.02-35.02a1.25 1.25 0 011.77 0l10.5 10.5c.49.49.49 1.28 0 1.77l-35.02 35.02c-.49.49-1.28.49-1.77 0z"/></svg>