<svg xmlns="http://www.w3.org/2000/svg" viewBox="0 0 370.85 512" fill="#0dc0c0"><title>ic-marker</title><path d="M256,0C153.76,0,70.57,83.18,70.57,185.43c0,126.88,165.94,313.16,173,321a16.69,16.69,0,0,0,24.84,0c7.07-7.87,173-194.15,173-321C441.42,83.18,358.24,0,256,0Zm0,469.73c-55.85-66.34-152-197.22-152-284.3,0-83.84,68.21-152,152-152s152,68.2,152,152C408,272.52,311.86,403.37,256,469.73Z" transform="translate(-70.57)"/><path d="M256,92.13a93.3,93.3,0,1,0,93.29,93.3A93.4,93.4,0,0,0,256,92.13Zm0,153.2a59.9,59.9,0,1,1,59.9-59.9A60,60,0,0,1,256,245.33Z" transform="translate(-70.57)"/></svg>