<?xml version="1.0" encoding="utf-8"?>
<!-- Generator: Adobe Illustrator 23.0.2, SVG Export Plug-In . SVG Version: 6.00 Build 0)  -->
<svg version="1.1" id="Слой_1" xmlns:svg="http://www.w3.org/2000/svg"
	 xmlns="http://www.w3.org/2000/svg" xmlns:xlink="http://www.w3.org/1999/xlink" x="0px" y="0px" viewBox="0 0 80 64"
	 style="enable-background:new 0 0 80 64;" xml:space="preserve">
<path fill="#FFFFFF" d="M75,0c2.8,0,5,2.2,5,5s-2.2,5-5,5H5c-2.8,0-5-2.2-5-5s2.2-5,5-5H75z M75,27c2.8,0,5,2.2,5,5s-2.2,5-5,5H5c-2.8,0-5-2.2-5-5
	c0-2.8,2.2-5,5-5H75z M75,54c2.8,0,5,2.2,5,5s-2.2,5-5,5H5c-2.8,0-5-2.2-5-5s2.2-5,5-5H75z"/>
</svg>
