<?xml version="1.0" encoding="utf-8"?>
<!-- Generator: Adobe Illustrator 23.0.5, SVG Export Plug-In . SVG Version: 6.00 Build 0)  -->
<svg version="1.1" id="Layer_1" xmlns="http://www.w3.org/2000/svg" xmlns:xlink="http://www.w3.org/1999/xlink" x="0px" y="0px"
	 viewBox="0 0 400 400" style="enable-background:new 0 0 400 400;" xml:space="preserve">
<style type="text/css">
	.st0{fill:#FFFFFF;}
</style>
<g>
	<path class="st0" d="M312,173H88c-11.6,0-21-9.4-21-21v0c0-11.6,9.4-21,21-21h224c11.6,0,21,9.4,21,21v0
		C333,163.6,323.6,173,312,173z"/>
</g>
<g>
	<path class="st0" d="M312,239H88c-11.6,0-21-9.4-21-21v0c0-11.6,9.4-21,21-21h224c11.6,0,21,9.4,21,21v0
		C333,229.6,323.6,239,312,239z"/>
</g>
<g>
	<path class="st0" d="M312,305H88c-11.6,0-21-9.4-21-21v0c0-11.6,9.4-21,21-21h224c11.6,0,21,9.4,21,21v0
		C333,295.6,323.6,305,312,305z"/>
</g>
</svg>
