<svg version="1.1" id="Layer_1" xmlns="http://www.w3.org/2000/svg" x="0" y="0" viewBox="0 0 220.2 222.4" xml:space="preserve"><style>.st0{fill:#333}</style><path class="st0" d="M216.5 121.2c2.4-4.8 3.7-10.1 3.7-15.1 0-27.8-18.5-30.8-26.4-30.8h-47c8-16.3 11-35.4 7.3-51.2C150.5 9.2 140.3 0 127.4 0c-14.7 0-27.1 11.7-27 26.6.3 27.5-20.4 45.4-43.3 57-3.3-4.5-8.5-7.5-14.5-7.5H17.9C8 76.1 0 84.1 0 94v109.3c0 9.9 8 17.9 17.9 17.9h24.8c6.5 0 11.4-3.5 14.5-8.6 10.9 7.3 24.1 10.5 38.4 9.7h79.1c29 0 32.1-18 32.1-25.8 0-2.8-.3-5.1-.8-7.1 3.4-4.4 6.6-10.6 7.1-19.8.2-4-.4-8-1.9-11.8 4.2-4.5 8.4-11.6 8.3-22.9 0-4.8-1.1-9.5-3-13.7zM49.4 203.3c0 2.8-2.3 5.1-5.1 5.1H17.9c-2.8 0-5.1-2.3-5.1-5.1V94c0-2.8 2.3-5.1 5.1-5.1h26.4c2.8 0 5.1 2.3 5.1 5.1v109.3zm149.4-52c-4.3.8-17.1.4-17.1.4-1.8 0-3.2 1.4-3.2 3.2 0 1.8 1.4 3.2 3.2 3.2 0 0 15.1.1 17.8 1.9 1.8 1.2 3.3 5.8 3.1 9.8 0 .8-1.6 14.7-9.5 14.9-2.9.1-21.7-.1-21.7-.1-1.8 0-3.2 1.4-3.2 3.2 0 1.8 1.4 3.2 3.2 3.2h21.7c2.8 0 1.7 5.3 1.5 7.1-1.2 10.7-9.2 11.6-19.9 11.6H95.5c-13.6.8-28.7-2.8-38.4-10.7V96.2c28-14.6 55-33.7 56-69.2.2-7.9 6.4-14.3 14.3-14.3s12.4 6.6 14.3 14.3c4.6 19.3-3.9 46.2-19.4 61h71.6c10.7 0 14.7 6 14.7 16.7 0 4-1.2 9.6-4.9 11.6-3.9 2.1-17.6 1.7-17.6 1.7-1.8 0-3.2 1.4-3.2 3.2s1.4 3.2 3.2 3.2c0 0 15.8-.6 19.6 1.5 3.2 1.7 4.7 5.8 4.5 10.4-.4 9.5-5.2 13.8-11.4 15z"/><path class="st0" d="M31.1 188.3c-4.1 0-7.4 3.3-7.4 7.4 0 4.1 3.3 7.4 7.4 7.4s7.4-3.3 7.4-7.4c0-4.1-3.3-7.4-7.4-7.4z"/></svg>