<svg version="1.1" id="Layer_1" xmlns="http://www.w3.org/2000/svg" x="0" y="0" viewBox="0 0 400 400" xml:space="preserve"><style>.st0{fill:#333}</style><path class="st0" d="M306.28 209.99c2.36-4.78 3.72-10.11 3.72-15.15 0-27.78-18.45-30.78-26.38-30.78H236.6c7.96-16.29 11.03-35.39 7.28-51.18-3.51-14.85-13.73-24.07-26.66-24.07-14.71 0-27.14 11.69-27 26.63.26 27.44-20.44 45.35-43.29 56.94-3.25-4.5-8.5-7.46-14.46-7.46H107.7c-9.85 0-17.87 8.02-17.87 17.87v109.33c0 9.85 8.02 17.88 17.87 17.88h24.77c6.46 0 11.38-3.48 14.52-8.63 10.89 7.28 24.15 10.51 38.38 9.73h79.13c29.02 0 32.15-18.02 32.15-25.77 0-2.82-.25-5.13-.76-7.11 3.41-4.35 6.62-10.6 7.12-19.79.21-4.01-.44-8.04-1.88-11.84 4.22-4.54 8.35-11.59 8.27-22.89-.04-4.84-1.12-9.49-3.12-13.71zm-167.04 82.14c0 2.84-2.3 5.14-5.13 5.14h-26.39c-2.83 0-5.13-2.3-5.13-5.14V182.81c0-2.83 2.3-5.13 5.13-5.13h26.39c2.83 0 5.13 2.3 5.13 5.13v109.32zm149.38-52.02c-4.27.78-17.07.37-17.07.37-1.76 0-3.18 1.43-3.18 3.18 0 1.77 1.42 3.18 3.18 3.18 0 0 15.06.1 17.81 1.87 1.82 1.17 3.31 5.77 3.1 9.82-.04.81-1.56 14.73-9.48 14.93-2.92.07-21.7-.07-21.7-.07-1.76 0-3.18 1.42-3.18 3.18 0 1.76 1.42 3.18 3.18 3.18 0 0 16.32-.03 21.66-.03 2.79 0 1.69 5.34 1.49 7.06-1.19 10.66-9.21 11.58-19.93 11.58h-79.13c-13.57.77-28.66-2.81-38.44-10.74V185c27.98-14.6 55.01-33.72 56.02-69.18.23-7.87 6.38-14.26 14.27-14.26 7.88 0 12.45 6.6 14.27 14.26 4.57 19.31-3.89 46.23-19.45 60.98h71.57c10.72 0 14.69 5.99 14.69 16.71 0 4.02-1.21 9.6-4.86 11.58-3.86 2.09-17.56 1.73-17.56 1.73-1.76 0-3.18 1.42-3.18 3.18s1.42 3.18 3.18 3.18c0 0 15.78-.56 19.64 1.53 3.2 1.73 4.71 5.8 4.51 10.38-.41 9.49-5.18 13.87-11.41 15.02z"/><path class="st0" d="M120.91 277.1c-4.1 0-7.43 3.33-7.43 7.43 0 4.11 3.33 7.43 7.43 7.43s7.43-3.32 7.43-7.43c0-4.09-3.33-7.43-7.43-7.43z"/></svg>