<svg version="1.1" id="Layer_1" xmlns="http://www.w3.org/2000/svg" x="0" y="0" viewBox="0 0 191.1 181.5" xml:space="preserve"><style>.st0{fill:#333;stroke-width:1}</style><path class="st0" d="M158.5 167.4l-4.2-4.8c19.3-16.9 30.4-41.3 30.4-67 0-49.2-40-89.2-89.2-89.2S6.4 46.4 6.4 95.5c0 25.7 11.1 50.2 30.4 67l-4.2 4.8C11.9 149.3 0 123.1 0 95.5 0 42.9 42.9 0 95.5 0S191 42.9 191 95.5c.1 27.6-11.8 53.8-32.5 71.9z"/><path class="st0" d="M89.8 3.2h11.5v25.5H89.8V3.2zM26.2 34.3l8.1-8.1 18 18-8.1 8.1-18-18zM3.2 101.3V89.8h25.5v11.5H3.2zM34.3 164.9l-8.1-8.1 18-18 8.1 8.1-18 18zM164.9 156.8l-8.1 8.1-18-18 8.1-8.1 18 18zM187.9 89.8v11.5h-25.5V89.8h25.5zM156.8 26.2l8.1 8.1-18 18-8.1-8.1 18-18z"/><circle class="st0" cx="98.7" cy="95.5" r="9.6"/><path class="st0" d="M66.9 162.4h63.7v19.1H66.9v-19.1zm70.7-107.3L93.9 89l11.5 11.2 32.2-45.1z"/></svg>