<svg version="1.1" id="Layer_1" xmlns="http://www.w3.org/2000/svg" x="0" y="0" viewBox="0 0 400 400" xml:space="preserve"><style>.st0{fill:#333}</style><path class="st0" d="M263.47 276.86l-4.19-4.8c19.34-16.86 30.44-41.29 30.44-67.02 0-49.17-40-89.17-89.17-89.17s-89.17 40-89.17 89.17c0 25.73 11.09 50.16 30.44 67.02l-4.19 4.8c-20.73-18.07-32.62-44.25-32.62-71.82 0-52.68 42.86-95.54 95.54-95.54s95.54 42.86 95.54 95.54c0 27.58-11.89 53.75-32.62 71.82z"/><path class="st0" d="M194.82 112.69h11.46v25.48h-11.46z"/><path transform="rotate(-45.001 144.256 148.746)" class="st0" d="M138.52 136.01h11.46v25.48h-11.46z"/><path transform="rotate(-90 120.938 205.04)" class="st0" d="M115.21 192.3h11.46v25.48h-11.46z"/><path transform="rotate(-134.999 144.257 261.337)" class="st0" d="M138.52 248.6h11.46v25.48h-11.46z"/><path transform="rotate(134.999 256.85 261.336)" class="st0" d="M251.12 248.6h11.46v25.48h-11.46z"/><path transform="rotate(90 280.167 205.04)" class="st0" d="M274.43 192.3h11.46v25.48h-11.46z"/><path transform="rotate(45.001 256.851 148.741)" class="st0" d="M251.12 136.01h11.46v25.48h-11.46z"/><circle class="st0" cx="203.74" cy="205.04" r="9.55"/><path class="st0" d="M171.89 271.92h63.69v19.11h-63.69zM242.62 164.63l-43.74 33.87 11.47 11.21z"/></svg>