<?xml version="1.0" encoding="utf-8"?>
<!-- Generator: Adobe Illustrator 23.0.5, SVG Export Plug-In . SVG Version: 6.00 Build 0)  -->
<svg version="1.1" id="Layer_1" xmlns="http://www.w3.org/2000/svg" xmlns:xlink="http://www.w3.org/1999/xlink" x="0px" y="0px"
	 viewBox="0 0 400 400" style="enable-background:new 0 0 400 400;" xml:space="preserve">
<style type="text/css">
	.st0{fill:#333333;}
</style>
<g>
	<g>
		<path class="st0" d="M263.47,276.86l-4.19-4.8c19.34-16.86,30.44-41.29,30.44-67.02c0-49.17-40-89.17-89.17-89.17
			s-89.17,40-89.17,89.17c0,25.73,11.09,50.16,30.44,67.02l-4.19,4.8c-20.73-18.07-32.62-44.25-32.62-71.82
			c0-52.68,42.86-95.54,95.54-95.54s95.54,42.86,95.54,95.54C296.09,232.62,284.2,258.79,263.47,276.86z"/>
	</g>
	<g>
		<rect x="194.82" y="112.69" class="st0" width="11.46" height="25.48"/>
	</g>
	<g>
		
			<rect x="138.52" y="136.01" transform="matrix(0.7071 -0.7071 0.7071 0.7071 -62.9259 145.5709)" class="st0" width="11.46" height="25.48"/>
	</g>
	<g>
		
			<rect x="115.21" y="192.3" transform="matrix(4.442586e-11 -1 1 4.442586e-11 -84.1016 325.9778)" class="st0" width="11.46" height="25.48"/>
	</g>
	<g>
		
			<rect x="138.52" y="248.6" transform="matrix(-0.7071 -0.7071 0.7071 -0.7071 61.4693 548.1327)" class="st0" width="11.46" height="25.48"/>
	</g>
	<g>
		
			<rect x="251.12" y="248.6" transform="matrix(-0.7071 0.7071 -0.7071 -0.7071 623.2602 264.5085)" class="st0" width="11.46" height="25.48"/>
	</g>
	<g>
		
			<rect x="274.43" y="192.3" transform="matrix(-1.332767e-10 1 -1 -1.332767e-10 485.2068 -75.1275)" class="st0" width="11.46" height="25.48"/>
	</g>
	<g>
		
			<rect x="251.12" y="136.01" transform="matrix(0.7071 0.7071 -0.7071 0.7071 180.4069 -138.0533)" class="st0" width="11.46" height="25.48"/>
	</g>
	<g>
		<circle class="st0" cx="203.74" cy="205.04" r="9.55"/>
	</g>
	<g>
		<rect x="171.89" y="271.92" class="st0" width="63.69" height="19.11"/>
	</g>
	<g>
		<polygon class="st0" points="242.62,164.63 198.88,198.5 210.35,209.71 		"/>
	</g>
</g>
</svg>
