<svg xmlns="http://www.w3.org/2000/svg" viewBox="0 0 301.39 260.4"><title>ic-tg</title><path d="M1006.09-351.24,958.42-110.9s-6.67,16.66-25,8.66l-110-84.33-40-19.33-67.33-22.67s-10.33-3.67-11.33-11.67,11.66-12.33,11.66-12.33l267.67-105S1006.09-367.24,1006.09-351.24Z" transform="translate(-704.7 360.46)" style="fill:#fff"/><path d="M815-113.6s-3.21-.3-7.21-13-24.34-79.33-24.34-79.33L945.09-308.57s9.33-5.67,9,0c0,0,1.67,1-3.33,5.67s-127,114.33-127,114.33" transform="translate(-704.7 360.46)" style="fill:#d3e6f2"/><path d="M865.6-154.23l-43.51,39.67s-3.4,2.58-7.12,1l8.33-73.69" transform="translate(-704.7 360.46)" style="fill:#b6d0e5"/></svg>