<svg xmlns="http://www.w3.org/2000/svg" viewBox="0 0 365 394.03"><title>ic-vb</title><path d="M402,273.84c-9.71,80.08-66.92,85.13-77.46,88.6-4.5,1.47-46.23,12.1-98.67,8.58L169,434l-.06-72.61-.45-.12c-76.38-21.72-73.81-103.15-72.95-145.9s8.7-77.76,32-101.31c41.85-38.82,128.08-33,128.08-33,72.82.33,107.73,22.77,115.82,30.3C398.29,134.94,412,191.29,402,273.84M391.3,91.39c-9.57-9-48.22-37.73-134.31-38.12,0,0-101.51-6.28-151,40.21-27.55,28.2-37.24,69.46-38.27,120.65s-2.34,147.07,88,173.08l.08,0,0,39.68s-.56,16.07,9.75,19.33c12.5,4,19.84-8.24,31.77-21.4,6.56-7.21,15.59-17.83,22.4-25.94,61.77,5.3,109.26-6.85,114.65-8.64,12.48-4.15,83-13.4,94.51-109.29,11.84-98.87-5.74-161.39-37.49-189.59" transform="translate(-67.5 -52.98)" style="fill:#ffffff"/><path d="M336.22,285.78S324.64,275.9,319,271.66a218.8,218.8,0,0,0-18.53-12.11c-8.51-4.85-17.2-1.81-20.78,3l-7.45,9.58c-3.82,4.86-9.71,4.05-11.25,3.73-11-2.76-22.72-9.65-34.7-21.25s-19.46-23.93-22.08-36.65l-.19-.83c-.7-5.23.17-7.64,2.3-11.21l.4-.33c5-4.68,14.37-10.37,15.62-15.8,3.66-9.42-12.26-29.06-14.53-32.53,0,0-11.58-15.33-15.7-18.25-4.44-3.7-11.33-5.82-18.27-1.55l-.36.26c-19.95,13.5-27.18,21.26-25.21,32.84l1,4.66c10.12,31.9,29.65,65.9,58.79,96.18,28.82,29.91,60,47.82,90.72,60.22,8,2.65,16.27.37,24.76-6.88l.14-.11A78.91,78.91,0,0,0,339.21,305l0-.14c3.74-7.37,2.47-14.35-3-19.11" transform="translate(-67.5 -52.98)" style="fill:#ffffff"/><path d="M288.38,215.94a2.32,2.32,0,0,1-2.29-2.23c-.4-8.27-2.63-14.6-6.62-18.83s-9.93-6.55-17.69-7a2.35,2.35,0,0,1,.25-4.7c9,.49,15.93,3.32,20.74,8.4s7.45,12.42,7.91,21.86a2.34,2.34,0,0,1-2.18,2.47h-.12" transform="translate(-67.5 -52.98)" style="fill:#ffffff"/><path d="M311.12,223.74h-.06a2.34,2.34,0,0,1-2.24-2.41c.35-15.87-4.28-29.29-13.79-39.9A50.33,50.33,0,0,0,278,169,69,69,0,0,0,255,163.56a2.35,2.35,0,0,1-2.12-2.52,2.32,2.32,0,0,1,2.45-2.18c18.33,1.38,32.82,7.9,43.09,19.4s15.36,26.06,15,43.18a2.34,2.34,0,0,1-2.3,2.3" transform="translate(-67.5 -52.98)" style="fill:#ffffff"/><path d="M334.4,233.06a2.32,2.32,0,0,1-2.3-2.33c-.11-14-2.22-26.72-6.3-37.74a78.88,78.88,0,0,0-18.2-28.56,82.16,82.16,0,0,0-27.13-18.16A89.45,89.45,0,0,0,247.35,140a2.36,2.36,0,0,1,0-4.71h0c25.15.19,46.48,8.85,63.42,25.74a83.24,83.24,0,0,1,19.28,30.26c4.27,11.52,6.49,24.77,6.6,39.36a2.32,2.32,0,0,1-2.27,2.37Z" transform="translate(-67.5 -52.98)" style="fill:#ffffff"/></svg>