<svg xmlns="http://www.w3.org/2000/svg" viewBox="0 0 175.7 176.49"><title>ic-wp</title><path d="M363.13,358.24A87.49,87.49,0,0,0,225.44,463.76L213,509.08l46.38-12.16a87.44,87.44,0,0,0,41.8,10.64h0a87.48,87.48,0,0,0,61.88-149.32ZM301.25,492.79h0a72.61,72.61,0,0,1-37-10.13l-2.65-1.58L234,488.3l7.34-26.82-1.73-2.75a72.72,72.72,0,1,1,61.6,34.06Zm39.89-54.44c-2.19-1.09-12.94-6.38-14.94-7.11s-3.46-1.09-4.92,1.09-5.65,7.11-6.92,8.57-2.55,1.64-4.74.55A59.63,59.63,0,0,1,292,430.6a66.32,66.32,0,0,1-12.16-15.13c-1.27-2.19-.13-3.37,1-4.46s2.19-2.56,3.28-3.83a15.12,15.12,0,0,0,2.19-3.65,4,4,0,0,0-.18-3.83c-.55-1.09-4.92-11.85-6.74-16.22s-3.58-3.69-4.92-3.75-2.74-.08-4.19-.08a8,8,0,0,0-5.83,2.73c-2,2.19-7.65,7.48-7.65,18.23s7.83,21.15,8.92,22.61,15.42,23.53,37.35,33a125.65,125.65,0,0,0,12.46,4.6,30,30,0,0,0,13.76.87c4.21-.63,12.94-5.29,14.76-10.4s1.82-9.48,1.28-10.39S343.32,439.45,341.14,438.35Z" transform="translate(-213.03 -332.59)" style="fill:#fff"/></svg>