<svg xmlns="http://www.w3.org/2000/svg" viewBox="0 0 816.02 845.56"><path d="M314.31 629.8c65.73 0 26.95-191.86 62.37-204.41V177.44A58.85 58.85 0 01349 127.66h118a58.7 58.7 0 01-27.58 49.78v248c35.27 12.55-7.8 204.41 62.38 204.41M816 417.88c-23 64.81-84.31 111.57-156.92 111.57s-133.91-46.76-156.9-111.57h36.17L644.39 137c4.59-12.27 24.83-12.27 29.42 0l105.88 280.88zm-69.75 0L659.1 186.93l-87.21 231zM156.91 529.45C84.26 529.45 23 482.69 0 417.88h36.17L142.21 137c4.59-12.27 24.83-12.27 29.42 0l106 280.89h36.17c-23 64.81-84.27 111.57-156.92 111.57zm87.21-111.57l-87.2-230.95-87.21 231zm0 0" fill="#0dc0c0"/><path d="M407.91 154l-286.74 9.9v-39.8l286.74-27.04zm.2 0l286.74 9.9v-39.8L408.11 97.06z" fill="#0dc0c0"/><path fill="#0dc0c0" d="M376.68 87.53h62.65v97.13h-62.65z"/><circle cx="408.01" cy="49.34" r="49.34" fill="#0dc0c0"/><path d="M106.21 647.21h514.6a89 89 0 0189 89h0a89 89 0 01-89 89h-514.6" fill="none" stroke="#0dc0c0" stroke-miterlimit="10" stroke-width="40.734"/><path fill="#0dc0c0" d="M577.54 763.62l40.12 33.21V675.58h-79.2v120.39l39.08-32.35zM501.82 698l-354.38 10.51v-26.2l354.38 10.48zm0 35.55L147.44 723.1v26.2l354.38-10.48zm0 40.79l-354.38-10.45v26.2l354.38-10.48z"/></svg>