<svg xmlns="http://www.w3.org/2000/svg" viewBox="0 0 816.02 845.56"><title>Konkord_Logo_Icon</title><path d="M314.31,629.8c65.73,0,26.95-191.86,62.37-204.41V177.44A58.85,58.85,0,0,1,349,127.66h118a58.7,58.7,0,0,1-27.58,49.78v248c35.27,12.55-7.8,204.41,62.38,204.41M816,417.88c-23,64.81-84.31,111.57-156.92,111.57S525.17,482.69,502.18,417.88h36.17L644.39,137c4.59-12.27,24.83-12.27,29.42,0L779.69,417.88Zm-69.75,0L659.1,186.93l-87.21,231ZM407.91,90.39m-251,14.12h0m0,424.94C84.26,529.45,23,482.69,0,417.88H36.17L142.21,137c4.59-12.27,24.83-12.27,29.42,0l106,280.89h36.17c-23,64.81-84.27,111.57-156.92,111.57Zm87.21-111.57L156.92,186.93l-87.21,231Zm0,0" style="fill:#0dc0c0"/><path d="M407.91,154l-286.74,9.9v-39.8L407.91,97.06Zm.2,0,286.74,9.9v-39.8L408.11,97.06Z" style="fill:#0dc0c0"/><rect x="376.68" y="87.53" width="62.65" height="97.13" style="fill:#0dc0c0"/><circle cx="408.01" cy="49.34" r="49.34" style="fill:#0dc0c0"/><path d="M106.21,647.21h514.6a89,89,0,0,1,89,89h0a89,89,0,0,1-89,89H106.21" style="fill:none;stroke:#0dc0c0;stroke-miterlimit:10;stroke-width:40.7343480584918px"/><polygon points="577.54 763.62 617.66 796.83 617.66 675.58 538.46 675.58 538.46 795.97 577.54 763.62" style="fill:#0dc0c0"/><path d="M501.82,698,147.44,708.51v-26.2l354.38,10.48Zm0,35.55L147.44,723.1v26.2l354.38-10.48Zm0,40.79L147.44,763.89v26.2l354.38-10.48Z" style="fill:#0dc0c0"/></svg>