<svg xmlns="http://www.w3.org/2000/svg" viewBox="0 0 438 642"><title>search</title><path d="M-615,547a167.89,167.89,0,0,1,119.5,49.5A167.89,167.89,0,0,1-446,716a167.89,167.89,0,0,1-49.5,119.5A167.89,167.89,0,0,1-615,885a167.89,167.89,0,0,1-119.5-49.5A167.89,167.89,0,0,1-784,716a167.89,167.89,0,0,1,49.5-119.5A167.89,167.89,0,0,1-615,547m0-50c-121,0-219,98-219,219s98,219,219,219,219-98,219-219S-494,497-615,497Z" transform="translate(834 -497)" style="fill:#fff"/><rect x="210" y="432" width="30" height="210" style="fill:#fff"/></svg>