<svg width="22" height="11" viewBox="0 0 22 11" fill="none" xmlns="http://www.w3.org/2000/svg">
<path d="M15.2 1.2L16.2607 0.139337L20.6801 4.55875C20.973 4.85165 20.973 5.32652 20.6801 5.61941V5.61941C20.3872 5.91231 19.9123 5.91231 19.6194 5.61941L15.2 1.2Z" fill="#717A82"/>
<path d="M15.2 9.30002L16.2607 10.3607L20.6801 5.94126C20.973 5.64837 20.973 5.17349 20.6801 4.8806V4.8806C20.3872 4.58771 19.9123 4.58771 19.6194 4.8806L15.2 9.30002Z" fill="#717A82"/>
<path d="M0 6.00003L0 4.50003L20.25 4.50003C20.6642 4.50003 21 4.83582 21 5.25003V5.25003C21 5.66424 20.6642 6.00003 20.25 6.00003L0 6.00003Z" fill="#717A82"/>
</svg>
