<svg xmlns="http://www.w3.org/2000/svg" viewBox="0 0 27 27"><title>ic-clock</title><path d="M514.5,708A11.5,11.5,0,1,1,503,719.5,11.51,11.51,0,0,1,514.5,708m0-2A13.5,13.5,0,1,0,528,719.5,13.49,13.49,0,0,0,514.5,706Z" transform="translate(-501 -706)"/><polygon points="14.33 4 12.67 4 12.67 14 14.33 14 14.33 4 14.33 4"/><polygon points="21.5 12.67 13.5 12.67 13.5 14.33 21.5 14.33 21.5 12.67 21.5 12.67"/><path d="M514.5,718a1.5,1.5,0,1,0,1.5,1.5,1.5,1.5,0,0,0-1.5-1.5Z" transform="translate(-501 -706)"/></svg>