<svg xmlns="http://www.w3.org/2000/svg" viewBox="0 0 18.96 14"><title>ic-mail</title><path d="M2,1.59A.45.45,0,0,0,1.59,2V12a.45.45,0,0,0,.45.45H16.92a.45.45,0,0,0,.45-.45V2a.45.45,0,0,0-.45-.45ZM0,2A2,2,0,0,1,2,0H16.92a2,2,0,0,1,2,2V12a2,2,0,0,1-2,2H2a2,2,0,0,1-2-2Z" style="fill:#247cff;fill-rule:evenodd"/><path d="M.45.77A.79.79,0,0,1,1.56.62L8.3,5.8h0a1.94,1.94,0,0,0,2.36,0h0L17.4.62a.8.8,0,1,1,1,1.26L11.64,7.07h0a3.58,3.58,0,0,1-2.16.73,3.53,3.53,0,0,1-2.15-.73h0L.59,1.88A.78.78,0,0,1,.45.77Z" style="fill:#247cff;fill-rule:evenodd"/></svg>