<svg xmlns="http://www.w3.org/2000/svg" viewBox="0 0 20 20" fill="none"><path d="M2.19.68a2.34 2.34 0 013.3 0l2.66 2.66a2.39 2.39 0 01.5.76 2.29 2.29 0 010 1.78 2.39 2.39 0 01-.5.76.66.66 0 00-.2.48.67.67 0 00.2.48l4.25 4.25a.62.62 0 00.22.15.7.7 0 00.52 0 .54.54 0 00.22-.15 2.34 2.34 0 013.3 0l2.66 2.66a2.34 2.34 0 010 3.3l-.64.63a5.32 5.32 0 01-6.62.73A41.8 41.8 0 01.85 8a5.35 5.35 0 01.73-6.64zm1.17 1.17l-.63.63a3.69 3.69 0 00-1.06 2.21 3.73 3.73 0 00.55 2.37 39.94 39.94 0 0010.7 10.71 3.68 3.68 0 004.59-.5l.58.58-.58-.58.63-.63a.68.68 0 000-1L15.49 13a.68.68 0 00-1 0 2.31 2.31 0 01-.76.51 2.43 2.43 0 01-.89.17 2.47 2.47 0 01-.89-.17 2.42 2.42 0 01-.76-.51L7 8.76a2.28 2.28 0 01-.7-1.64A2.32 2.32 0 017 5.47a.86.86 0 00.15-.22.7.7 0 000-.52.86.86 0 00-.15-.22L4.32 1.85a.68.68 0 00-1 0z" fill="#247cff" fill-rule="evenodd"/></svg>