<svg xmlns="http://www.w3.org/2000/svg" viewBox="0 0 20 20" fill="none"><path d="M2.19.68a2.34,2.34,0,0,1,3.3,0L8.15,3.34h0a2.39,2.39,0,0,1,.5.76,2.29,2.29,0,0,1,0,1.78,2.39,2.39,0,0,1-.5.76h0a.66.66,0,0,0-.2.48.67.67,0,0,0,.2.48l4.25,4.25a.62.62,0,0,0,.22.15.7.7,0,0,0,.52,0,.54.54,0,0,0,.22-.15h0a2.34,2.34,0,0,1,3.3,0l2.66,2.66a2.34,2.34,0,0,1,0,3.3l-.64.63a5.32,5.32,0,0,1-6.62.73.05.05,0,0,1,0,0A41.8,41.8,0,0,1,.85,8h0V8a5.35,5.35,0,0,1,.73-6.64ZM3.36,1.85h0l-.63.63h0A3.69,3.69,0,0,0,1.67,4.69a3.73,3.73,0,0,0,.55,2.37,39.94,39.94,0,0,0,10.7,10.71h0a3.68,3.68,0,0,0,4.59-.5l.58.58-.58-.58.63-.63a.68.68,0,0,0,0-1h0L15.49,13a.68.68,0,0,0-1,0,2.31,2.31,0,0,1-.76.51,2.43,2.43,0,0,1-.89.17,2.47,2.47,0,0,1-.89-.17,2.42,2.42,0,0,1-.76-.51L7,8.76A2.28,2.28,0,0,1,6.3,7.12,2.32,2.32,0,0,1,7,5.47H7a.86.86,0,0,0,.15-.22.7.7,0,0,0,0-.52A.86.86,0,0,0,7,4.51L4.32,1.85h0a.68.68,0,0,0-1,0Z" transform="translate(0)" style="fill:#247cff;fill-rule:evenodd"/></svg>